<svg xmlns="http://www.w3.org/2000/svg" xmlns:xlink="http://www.w3.org/1999/xlink" width="32" height="32" viewBox="0 0 32 32">
  <defs>
    <clipPath id="clip-path">
      <rect id="Rectangle_41" data-name="Rectangle 41" width="32" height="32" transform="translate(2248 -168)" fill="#fff" stroke="#707070" stroke-width="1"/>
    </clipPath>
  </defs>
  <g id="Mask_Group_8" data-name="Mask Group 8" transform="translate(-2248 168)" clip-path="url(#clip-path)">
    <g id="surface1" transform="translate(2247.578 -167.951)">
      <path id="Path_20" data-name="Path 20" d="M25.308-.038,15.861,1.229a1.187,1.187,0,0,0-1,1.344l3.725,28.265a1.184,1.184,0,0,0,1.344,1l9.409-1.229a1.212,1.212,0,0,0,1.037-1.344L26.613,1A1.176,1.176,0,0,0,25.308-.038ZM3.687,0A1.231,1.231,0,0,0,2.458,1.229V30.723a1.231,1.231,0,0,0,1.229,1.229h9.831a1.231,1.231,0,0,0,1.229-1.229V1.229A1.231,1.231,0,0,0,13.518,0ZM6.145,3.687H11.06V15.976H6.145Zm17.243.154,1.575,11.751-4.724.614L18.7,4.455Zm0,17.819A3.7,3.7,0,1,1,20.2,25.807,3.673,3.673,0,0,1,23.388,21.659ZM8.6,22.005a3.8,3.8,0,1,1-3.8,3.8A3.792,3.792,0,0,1,8.6,22.005ZM23.58,23.2A2.151,2.151,0,1,0,26,25.039,2.152,2.152,0,0,0,23.58,23.2ZM8.6,23.58a2.227,2.227,0,1,0,2.227,2.227A2.229,2.229,0,0,0,8.6,23.58Z" fill="#f6f8f9"/>
    </g>
  </g>
</svg>
