<svg xmlns="http://www.w3.org/2000/svg" xmlns:xlink="http://www.w3.org/1999/xlink" width="32" height="32" viewBox="0 0 32 32">
  <defs>
    <clipPath id="clip-path">
      <rect id="Rectangle_42" data-name="Rectangle 42" width="32" height="32" transform="translate(1920 -567)" fill="#fff" stroke="#707070" stroke-width="1"/>
    </clipPath>
  </defs>
  <g id="Mask_Group_9" data-name="Mask Group 9" transform="translate(-1920 567)" clip-path="url(#clip-path)">
    <path id="icons8-categorize_filled" d="M4.57,3.047A1.472,1.472,0,0,0,3.047,4.57V16.757A1.472,1.472,0,0,0,4.57,18.28H16.757a1.472,1.472,0,0,0,1.523-1.523V4.57a1.472,1.472,0,0,0-1.523-1.523Zm16.756,0A1.48,1.48,0,0,0,19.8,4.57V16.757a1.48,1.48,0,0,0,1.523,1.523H33.513a1.48,1.48,0,0,0,1.523-1.523V4.57a1.48,1.48,0,0,0-1.523-1.523Zm0,1.523H33.513V16.757H21.326ZM25.12,19.8a.761.761,0,0,0-.085.007H21.326A1.48,1.48,0,0,0,19.8,21.326v3.692a.762.762,0,0,0,0,.253v4.317a.762.762,0,0,0,0,.253v3.671a1.48,1.48,0,0,0,1.523,1.523H25a.762.762,0,0,0,.25,0h4.32a.762.762,0,0,0,.25,0h3.692a1.48,1.48,0,0,0,1.523-1.523V29.8a.762.762,0,0,0,0-.21v-4.36a.762.762,0,0,0,0-.21v-3.7A1.48,1.48,0,0,0,33.513,19.8h-3.7a.725.725,0,0,0-.211,0H25.246a.762.762,0,0,0-.126-.007ZM4.57,19.8a1.472,1.472,0,0,0-1.523,1.523V33.513A1.472,1.472,0,0,0,4.57,35.036H16.757a1.472,1.472,0,0,0,1.523-1.523V21.326A1.472,1.472,0,0,0,16.757,19.8Zm16.756,1.523H23.3l-1.97,1.97Zm4.124,0h2.416l-6.54,6.54V25.45Zm4.57,0h2.416l-11.11,11.11V30.02ZM33.513,22.4v2.416l-8.694,8.694H22.4Zm-25.9.446a1.523,1.523,0,1,1-1.523,1.523A1.528,1.528,0,0,1,7.617,22.85Zm6.093,0a1.523,1.523,0,1,1-1.523,1.523A1.528,1.528,0,0,1,13.71,22.85Zm19.8,4.124v2.416l-4.124,4.124H26.973Zm-25.9,1.97a1.523,1.523,0,1,1-1.523,1.523A1.528,1.528,0,0,1,7.617,28.943Zm6.093,0a1.523,1.523,0,1,1-1.523,1.523A1.528,1.528,0,0,1,13.71,28.943Zm19.8,2.6v1.97h-1.97Z" transform="translate(1916.955 -570.047)" fill="#f6f8f9"/>
  </g>
</svg>
