<svg xmlns="http://www.w3.org/2000/svg" xmlns:xlink="http://www.w3.org/1999/xlink" width="32" height="32" viewBox="0 0 32 32">
  <defs>
    <clipPath id="clip-path">
      <rect id="Rectangle_60" data-name="Rectangle 60" width="32" height="32" transform="translate(4047 415)" fill="#fff" stroke="#707070" stroke-width="1"/>
    </clipPath>
  </defs>
  <g id="Mask_Group_19" data-name="Mask Group 19" transform="translate(-4047 -415)" clip-path="url(#clip-path)">
    <g id="surface1" transform="translate(4046.904 415)">
      <path id="Path_28" data-name="Path 28" d="M13.373,0A6.713,6.713,0,0,0,6.687,6.687V9.361L9.361,6.687a4.012,4.012,0,1,1,8.024,0V16.842c0,.136.01.293-.125.293a2.126,2.126,0,0,1-.543.919,1.98,1.98,0,0,1-2.8-2.8,2.034,2.034,0,0,1,2.131-.418V8.567L13.248,5.6l-13,13c-.8.8,1.614,4.414,5.224,8.024s7.22,6.028,8.024,5.224l13-13L20.06,12.537V6.687A6.713,6.713,0,0,0,13.373,0Zm9.361,13.373,5.349,5.349v8.693a2.006,2.006,0,1,0,4.012,0C32.1,23.936,31.563,16.048,22.735,13.373Z" fill="#f6f8f9"/>
    </g>
  </g>
</svg>
