<svg xmlns="http://www.w3.org/2000/svg" xmlns:xlink="http://www.w3.org/1999/xlink" width="32" height="32" viewBox="0 0 32 32">
  <defs>
    <clipPath id="clip-path">
      <rect id="Rectangle_39" data-name="Rectangle 39" width="32" height="32" transform="translate(2887 -220)" fill="#fff" stroke="#707070" stroke-width="1"/>
    </clipPath>
  </defs>
  <g id="Mask_Group_6" data-name="Mask Group 6" transform="translate(-2887 220)" clip-path="url(#clip-path)">
    <g id="surface1" transform="translate(2885.609 -221.391)">
      <path id="Path_12" data-name="Path 12" d="M9.043,1.391a1.391,1.391,0,0,0,0,2.783h16.7a1.391,1.391,0,1,0,0-2.783ZM5.565,4.174A4.185,4.185,0,0,0,1.391,8.348c0,2.745,2.264,5.223,4.375,7.359,1.057,1.068,2.1,2.043,2.853,2.859a8.588,8.588,0,0,1,.872,1.065,1.477,1.477,0,0,1,.247.543.683.683,0,0,1-.7.7.7.7,0,1,0,0,1.391,2.091,2.091,0,0,0,2.076-2c1.617,4.016,3.81,6.867,6.247,6.867s4.66-2.864,6.291-6.9a2.1,2.1,0,0,0,2.082,2.03.7.7,0,1,0,0-1.391.683.683,0,0,1-.7-.7,1.477,1.477,0,0,1,.247-.543,8.587,8.587,0,0,1,.872-1.065c.753-.815,1.8-1.791,2.853-2.859,2.111-2.136,4.375-4.614,4.375-7.359A4.165,4.165,0,0,0,26.12,5.565H8.663A4.158,4.158,0,0,0,5.565,4.174Zm0,1.391A2.774,2.774,0,0,1,8.348,8.348a.7.7,0,0,0,.149.44,42.5,42.5,0,0,0,2.054,9.938,10.647,10.647,0,0,0-.91-1.106c-.812-.875-1.856-1.848-2.886-2.891-2.063-2.084-3.973-4.465-3.973-6.38A2.774,2.774,0,0,1,5.565,5.565Zm23.652,0A2.774,2.774,0,0,1,32,8.348c0,1.916-1.91,4.3-3.973,6.38-1.03,1.043-2.073,2.016-2.886,2.891a10.24,10.24,0,0,0-.935,1.139,42.172,42.172,0,0,0,2.079-9.97.7.7,0,0,0,.149-.44A2.774,2.774,0,0,1,29.217,5.565ZM17.177,9.043h1.606v8.348H16.75V12.079h-2v-1.37A2.175,2.175,0,0,0,17.177,9.043Zm3,18.554a4.891,4.891,0,0,1-2.807.924,4.84,4.84,0,0,1-2.758-.9v2.986H12.522a2.781,2.781,0,0,0-2.783,2.783h15.3a2.781,2.781,0,0,0-2.783-2.783H20.174Z" fill="#f6f8f9"/>
    </g>
  </g>
</svg>
