<svg xmlns="http://www.w3.org/2000/svg" xmlns:xlink="http://www.w3.org/1999/xlink" width="32" height="32" viewBox="0 0 32 32">
  <defs>
    <clipPath id="clip-path">
      <rect id="Rectangle_56" data-name="Rectangle 56" width="32" height="32" transform="translate(4053 244)" fill="#f8f9fa" stroke="#707070" stroke-width="1"/>
    </clipPath>
  </defs>
  <g id="Mask_Group_16" data-name="Mask Group 16" transform="translate(-4053 -244)" clip-path="url(#clip-path)">
    <g id="surface1" transform="translate(4049.729 240.958)">
      <path id="Path_25" data-name="Path 25" d="M20.072,3.042a.8.8,0,0,0-.144.024.762.762,0,0,0-.6.539.77.77,0,0,0,.216.778l.551.551c-3.12,3.506-4.305,8.476-4.6,9.94l-5.365,2.4-.1-.1a.762.762,0,1,0-1.078,1.078L20.072,29.365a.767.767,0,1,0,1.078-1.078l-.263-.263,2.4-5.293a21.933,21.933,0,0,0,10.108-4.5l.551.551a.771.771,0,1,0,1.1-1.078L20.623,3.281A.766.766,0,0,0,20.072,3.042Zm-6.659,20.79L3.281,33.94l1.1,1.1L14.491,24.91Z" fill="#f8f9fa"/>
    </g>
  </g>
</svg>
